<svg width="40" height="40" viewBox="0 0 40 40" fill="none" xmlns="http://www.w3.org/2000/svg">
  <rect width="40" height="40" rx="8" fill="#0EA5E9"/>
  <path d="M20 10C14.477 10 10 14.477 10 20C10 25.523 14.477 30 20 30C25.523 30 30 25.523 30 20C30 14.477 25.523 10 20 10ZM24.5 21H20.5V25C20.5 25.553 20.053 26 19.5 26C18.947 26 18.5 25.553 18.5 25V21H15.5C14.947 21 14.5 20.553 14.5 20C14.5 19.447 14.947 19 15.5 19H18.5V15C18.5 14.447 18.947 14 19.5 14C20.053 14 20.5 14.447 20.5 15V19H24.5C25.053 19 25.5 19.447 25.5 20C25.5 20.553 25.053 21 24.5 21Z" fill="white"/>
</svg> 